<svg width="23" height="24" viewBox="0 0 23 24" fill="none" xmlns="http://www.w3.org/2000/svg">
<path d="M11.5021 5.62695C8.24137 5.62695 5.60156 8.28585 5.60156 11.5637C5.60156 14.8444 8.24424 17.5004 11.5021 17.5004C14.7628 17.5004 17.4026 14.8415 17.4026 11.5637C17.4026 8.28296 14.7599 5.62695 11.5021 5.62695ZM11.5021 15.417C9.38545 15.417 7.67221 13.6923 7.67221 11.5637C7.67221 9.43502 9.38641 7.7103 11.5021 7.7103C13.6178 7.7103 15.332 9.43502 15.332 11.5637C15.3329 13.6923 13.6187 15.417 11.5021 15.417Z" fill="black"/>
<path d="M16.2396 0.0726778C14.1239 -0.0266211 8.88358 -0.0218008 6.76598 0.0726778C4.90518 0.160408 3.26381 0.612555 1.94055 1.94393C-0.27095 4.169 0.011716 7.16725 0.011716 11.5644C0.011716 16.0646 -0.237413 18.9935 1.94055 21.1848C4.16067 23.4176 7.18375 23.1254 11.5023 23.1254C15.933 23.1254 17.4622 23.1283 19.0289 22.5181C21.1589 21.6861 22.7668 19.7705 22.9239 16.3297C23.0236 14.2001 23.0178 8.9286 22.9239 6.79801C22.7342 2.73639 20.5677 0.273204 16.2396 0.0726778ZM19.5885 19.7126C18.1387 21.1713 16.1275 21.0411 11.4745 21.0411C6.68358 21.0411 4.76241 21.1125 3.36058 19.6982C1.74604 18.0814 2.03828 15.4852 2.03828 11.5489C2.03828 6.22246 1.49499 2.38644 6.80814 2.11264C8.02888 2.06926 8.3882 2.0548 11.4611 2.0548L11.5042 2.08372C16.6104 2.08372 20.6166 1.54577 20.8571 6.89056C20.9117 8.1101 20.9242 8.47645 20.9242 11.5634C20.9232 16.3278 21.0133 18.2723 19.5885 19.7126Z" fill="black"/>
<path d="M17.6366 6.78044C18.3982 6.78044 19.0155 6.15933 19.0155 5.39315C19.0155 4.62697 18.3982 4.00586 17.6366 4.00586C16.8751 4.00586 16.2578 4.62697 16.2578 5.39315C16.2578 6.15933 16.8751 6.78044 17.6366 6.78044Z" fill="black"/>
</svg>
