<svg width="19" height="19" viewBox="0 0 19 19" fill="none" xmlns="http://www.w3.org/2000/svg">
<path d="M10.4417 8.47125H10.7442L10.8846 8.20325C11.3185 7.37492 12.4208 6.44922 14.1331 6.44922C15.9859 6.44922 16.9703 7.04517 17.5311 7.93268C18.1253 8.87307 18.3119 10.2391 18.3119 11.9213V18.2868H15.409V12.6736V12.6691C15.409 11.9637 15.409 11.0356 15.1123 10.2855C14.9579 9.89495 14.7146 9.52732 14.3314 9.26092C13.9474 8.99394 13.4657 8.85846 12.8869 8.85846C12.3166 8.85846 11.8307 8.96976 11.4279 9.19294C11.022 9.41778 10.7306 9.73956 10.5265 10.1112C10.1316 10.8305 10.0592 11.7485 10.0592 12.5796V18.3103H7.15625V6.75487H9.89466V7.97125V8.47125H10.3947H10.4417Z" fill="black" stroke="black"/>
<path d="M0.804688 6.75391H3.70768V18.3093H0.804688V6.75391Z" fill="black" stroke="black"/>
<path d="M0.5 2.25715C0.5 1.28716 1.28716 0.5 2.25715 0.5C3.22714 0.5 4.0143 1.28716 4.0143 2.25715C4.0143 3.2339 3.22043 4.03781 2.25715 4.03781C1.29387 4.03781 0.5 3.2339 0.5 2.25715Z" fill="black" stroke="black"/>
</svg>
